<?xml version="1.0" encoding="utf-8"?>
<!-- Generator: Adobe Illustrator 23.0.0, SVG Export Plug-In . SVG Version: 6.00 Build 0)  -->
<svg version="1.1" id="Layer_1" xmlns="http://www.w3.org/2000/svg" xmlns:xlink="http://www.w3.org/1999/xlink" x="0px" y="0px"
	 viewBox="0 0 730 730" style="enable-background:new 0 0 730 730;" xml:space="preserve">
<style type="text/css">
	.st0{fill:#FFFFFF;}
</style>
<g>
	<path class="st0" d="M317.34,486.75H84.58c-11.92,0-21.58-9.66-21.58-21.58V46.33c0-11.92,9.66-21.58,21.58-21.58h232.76
		c11.92,0,21.58,9.66,21.58,21.58v418.84C338.92,477.09,329.26,486.75,317.34,486.75z"/>
	<path class="st0" d="M317.34,704H84.58C72.66,704,63,694.34,63,682.42V571.58C63,559.66,72.66,550,84.58,550h232.76
		c11.92,0,21.58,9.66,21.58,21.58v110.84C338.92,694.34,329.26,704,317.34,704z"/>
	<path class="st0" d="M424.66,384.08h232.76c11.92,0,21.58,9.66,21.58,21.58v276.76c0,11.92-9.66,21.58-21.58,21.58H424.66
		c-11.92,0-21.58-9.66-21.58-21.58V405.66C403.08,393.74,412.74,384.08,424.66,384.08z"/>
	<path class="st0" d="M424.66,24.75h232.76c11.92,0,21.58,9.66,21.58,21.58v253.84c0,11.92-9.66,21.58-21.58,21.58H424.66
		c-11.92,0-21.58-9.66-21.58-21.58V46.33C403.08,34.41,412.74,24.75,424.66,24.75z"/>
</g>
</svg>
